<svg xmlns="http://www.w3.org/2000/svg" xml:space="preserve" viewBox="0 0 84 84">
  <path d="M75.296 42.882c-3.125-1.314-6.562-1.131-9.949.402 1.467-5.405 4.617-9.518 7.535-10.415a3 3 0 0 0-1.763-5.736C65.427 28.885 60.609 35.919 59.042 44c-3.825-2.166-7.781-2.608-11.335-1.117C42.335 45.135 39 51.378 39 59.171c0 7.767 4.922 20.663 12.937 24.026 3.234 1.356 6.552.981 9.563-1.034C63.321 83.382 65.254 84 67.213 84c1.28 0 2.572-.267 3.85-.803C79.078 79.834 84 66.938 84 59.171c0-7.793-3.335-14.036-8.704-16.289Zm-6.557 34.784c-1.178.489-2.823.768-5.139-1.506a2.995 2.995 0 0 0-2.101-.858c-.759 0-1.518.287-2.101.858-2.314 2.276-3.962 1.998-5.139 1.506C49.361 75.609 45 65.61 45 59.171c0-5.253 1.973-9.475 5.029-10.758 2.656-1.119 6.072.094 9.371 3.331a3.002 3.002 0 0 0 4.201 0c3.297-3.231 6.719-4.447 9.372-3.331C76.027 49.696 78 53.918 78 59.171c0 6.439-4.361 16.438-9.261 18.495z"/>
  <path d="M33.779 69H6c-3.309 0-6-2.692-6-6V6c0-3.308 2.691-6 6-6h45c3.309 0 6 2.692 6 6v30a3 3 0 1 1-6 0V6H6v57h27.779a3 3 0 1 1 0 6z"/>
  <path d="M45 27H12a3 3 0 0 1-3-3V12a3 3 0 0 1 3-3h33a3 3 0 0 1 3 3v12a3 3 0 0 1-3 3zm-30-6h27v-6H15ZM15 39h-3a3 3 0 1 1 0-6h3a3 3 0 1 1 0 6zM30 39h-3a3 3 0 1 1 0-6h3a3 3 0 1 1 0 6zM45 39h-3a3 3 0 1 1 0-6h3a3 3 0 1 1 0 6zM15 48h-3a3 3 0 1 1 0-6h3a3 3 0 1 1 0 6zM30 48h-3a3 3 0 1 1 0-6h3a3 3 0 1 1 0 6zM15 57h-3a3 3 0 1 1 0-6h3a3 3 0 1 1 0 6zM30 57h-3a3 3 0 1 1 0-6h3a3 3 0 1 1 0 6z"/>
</svg>
