<?xml version="1.0" standalone="no"?>
<!DOCTYPE svg PUBLIC "-//W3C//DTD SVG 20010904//EN"
 "http://www.w3.org/TR/2001/REC-SVG-20010904/DTD/svg10.dtd">
<svg version="1.0" xmlns="http://www.w3.org/2000/svg"
 width="2001.000000pt" height="2001.000000pt" viewBox="0 0 2001.000000 2001.000000"
 preserveAspectRatio="xMidYMid meet">
<metadata>
Created by potrace 1.11, written by Peter Selinger 2001-2013
</metadata>
<g transform="translate(0.000000,2001.000000) scale(0.100000,-0.100000)"
fill="#000000" stroke="none">
<path d="M7 19623 c-4 -3 -7 -3046 -7 -6762 l0 -6756 2322 -1345 c4291 -2486
5284 -3056 6638 -3812 741 -414 1021 -563 1052 -561 52 4 1290 695 3113 1738
1261 722 1640 941 4388 2537 l2497 1452 -2 6755 -3 6756 -9996 3 c-5498 1
-9999 -1 -10002 -5z m15521 -1270 l3202 -6 0 -5743 0 -5742 -602 -348 c-1524
-879 -1856 -1071 -2643 -1526 -1373 -793 -1844 -1064 -2560 -1475 -1201 -689
-2195 -1252 -2668 -1511 l-248 -135 -37 17 c-134 64 -1077 595 -2357 1326
-972 556 -1762 1011 -4892 2819 l-1443 834 0 5743 0 5744 933 3 c2286 6 10401
6 13315 0z"/>
<path d="M16735 16756 c-1064 -620 -2335 -1350 -2900 -1666 -357 -199 -661
-370 -675 -380 -69 -47 -1087 -642 -2260 -1320 -459 -265 -849 -490 -865 -500
-30 -19 -30 -19 -85 14 -30 19 -489 284 -1020 591 -1391 804 -2056 1196 -2265
1334 l-90 59 -6 -30 c-9 -40 49 -3080 59 -3089 4 -4 754 -443 1667 -974 913
-532 1671 -974 1686 -982 25 -15 41 -6 750 407 398 233 1395 812 2214 1287
820 476 1505 874 1523 885 l32 20 0 -1514 0 -1514 -1002 -573 c-552 -316
-1035 -593 -1075 -615 l-72 -41 -1 -1332 c0 -733 2 -1333 4 -1333 2 0 462 265
1023 588 560 324 1624 938 2366 1366 l1347 778 0 4364 c0 3485 -3 4364 -12
4363 -7 -1 -161 -88 -343 -193z"/>
<path d="M2922 12589 l3 -4352 2360 -1363 c1298 -750 2363 -1363 2368 -1364 4
0 7 595 7 1323 l0 1322 -1075 615 -1075 615 -2 3040 -3 3040 -680 393 c-1494
864 -1669 965 -1778 1022 -63 33 -117 60 -120 60 -4 0 -6 -1958 -5 -4351z"/>
</g>
</svg>
