<svg xmlns="http://www.w3.org/2000/svg" xml:space="preserve" viewBox="0 0 146.182 146.182">
  <path d="M81.64 133c-6.421 4.402-20.012 7.112-34.327 6.953-22.786-.279-37.238-7.233-37.184-11.897l.165-13.092c7.968 5.456 22.621 8.403 37.217 8.573h.037c1.702 0 3.1-1.363 3.118-3.074l.469-38.43a3.076 3.076 0 0 0-.886-2.204 3.077 3.077 0 0 0-2.195-.943c-22.776-.274-37.229-7.228-37.174-11.898l.174-14.029c7.971 5.456 22.624 8.412 37.22 8.58.487.006.965.006 1.44.006 10.62 0 20.603-1.435 28.266-4.089 3.267-1.142 5.751-2.384 7.712-3.66l-.341 27.654a3.12 3.12 0 0 0 3.081 3.16h.036a3.12 3.12 0 0 0 3.118-3.081l.456-37.132c.043-3.617-2.229-8.686-12.488-12.857l.213-18.033C79.876 4.897 64.38.202 49.017.01L48.028 0c-14.41 0-29.961 3.998-30.071 12.748l-.219 18.018C9.551 33.877 5 38.28 4.929 43.325l-.286 23.568v.012l-.749 61.065c-.137 11.594 21.693 17.938 43.337 18.206.475.006.94.006 1.416.006 15.327 0 29.231-3.057 36.513-8.056a3.108 3.108 0 0 0 .805-4.336c-.964-1.4-2.906-1.752-4.325-.79zM44.862 85.042l-.393 32.199c-20.977-.847-34.121-7.374-34.065-11.825l.356-28.887c7.401 5.066 20.563 7.988 34.102 8.513zM23.937 33.561c.08-.387.08-.767.012-1.172l.137-11.356c5.897 3.319 15.269 5.109 24.609 5.228l.986.013c8.729 0 17.863-1.48 23.745-4.579l-.17 13.676c-.024 2.059-8.403 6.777-24.758 6.583-7.073-.086-13.655-1.145-18.557-2.981-4.408-1.644-6.037-3.458-6.031-4.213l.027-1.199zM48.028 6.245l.911.006c16.279.198 24.618 5.124 24.591 7.183-.024 1.97-8.168 6.597-23.842 6.597l-.911-.006c-16.273-.194-24.612-5.121-24.585-7.185.025-1.971 8.16-6.595 23.836-6.595zM18.179 37.314c.95 2.463 3.499 5.237 9.584 7.511 5.556 2.076 12.888 3.275 20.658 3.367.326 0 .648.006.968.006 13.405 0 26.674-3.446 29.487-10.169 5.035 2.345 6.936 4.777 6.917 6.312-.019 1.769-2.618 4.725-9.874 7.237-7.346 2.545-17.229 3.86-27.586 3.741-22.783-.28-37.235-7.23-37.181-11.883.031-1.552 1.989-3.908 7.027-6.122zm120.413 42.101a3.122 3.122 0 0 1-2.235 5.298c-.81 0-1.62-.316-2.229-.938l-14.79-15.165-39.841 38.876 14.79 15.162a3.12 3.12 0 0 1-2.235 5.297 3.09 3.09 0 0 1-2.229-.943L55.899 92.226a3.112 3.112 0 0 1 .055-4.408 3.128 3.128 0 0 1 4.408.061l14.791 15.162 39.844-38.879-14.79-15.15a3.116 3.116 0 0 1 .055-4.409 3.122 3.122 0 0 1 4.408.055l33.922 34.757zm-58.224 50.168-27.282-27.955a3.117 3.117 0 0 1 .055-4.409 3.123 3.123 0 0 1 4.409.062l27.283 27.949a3.117 3.117 0 0 1-.055 4.408 3.1 3.1 0 0 1-2.181.889 3.141 3.141 0 0 1-2.229-.944zm60.977-55.152a3.086 3.086 0 0 1-2.174.886 3.107 3.107 0 0 1-2.235-.935L109.657 46.43a3.118 3.118 0 0 1 .061-4.409 3.129 3.129 0 0 1 4.409.055l27.279 27.952a3.11 3.11 0 0 1-.061 4.403zm-81.948 37 11.311 11.594a3.114 3.114 0 0 1-2.235 5.292 3.12 3.12 0 0 1-2.231-.932l-11.311-11.594a3.114 3.114 0 0 1 .058-4.409 3.118 3.118 0 0 1 4.408.049zm64.381-62.824a3.108 3.108 0 0 1 .061-4.402 3.118 3.118 0 0 1 4.408.055l11.314 11.591a3.116 3.116 0 0 1-.062 4.408c-.603.6-1.395.892-2.18.892-.81 0-1.62-.311-2.229-.941l-11.312-11.603z"/>
</svg>
